<?xml version="1.0" encoding="UTF-8" standalone="no"?><!DOCTYPE svg PUBLIC "-//W3C//DTD SVG 1.1//EN" "http://www.w3.org/Graphics/SVG/1.1/DTD/svg11.dtd"><svg viewBox="0 0 133 10" xmlns="http://www.w3.org/2000/svg" xmlns:xlink="http://www.w3.org/1999/xlink"><style>:root>svg{display:none}:root>svg:target{display:block}</style><svg viewBox="0 0 133 10" id="arrowNext" xmlns="http://www.w3.org/2000/svg"><path d="M125.4 0h2.44L133 4.93v.17l-5.05 4.9h-2.62q-.16-1.17 2.13-2.63 1.82-1.16-.34-1.16H0V3.82l127.31.01q1.92 0 .31-1.05-2.53-1.66-2.22-2.78z"/></svg><svg viewBox="0 0 133 10" id="arrowPrev" xmlns="http://www.w3.org/2000/svg"><path d="M5.05 0h2.68q-.4 1.55-2.58 3.01a.44.44 0 00.24.8H133v2.4H5.24a.31.3-23.8 00-.21.53L7.7 9.18q.41.37-.09.6l-.49.22H5.16L0 5.07v-.18L5.05 0z"/></svg></svg>