<svg width="1637" height="1161" viewBox="0 0 1637 1161" fill="none" xmlns="http://www.w3.org/2000/svg">
<g clip-path="url(#clip0_2028_466)">
<path d="M52.3797 3.44321C53.6704 4.84201 153.912 115.024 275.235 248.448L495.832 490.977L493.251 494.313C483.033 507.763 1.07556 1160.03 1.07556 1160.46C1.07556 1160.78 60.2313 1160.89 132.509 1160.78L263.834 1160.46L443.023 905.774C541.544 765.679 622.533 651.193 622.963 651.301C623.394 651.408 643.399 672.821 667.384 698.752L710.944 746.096V953.548V1161H818.5H926.056V953.225V745.558L969.831 698.106C1011.46 653.022 1013.71 650.87 1015.22 652.807C1016.19 653.991 1097.07 768.799 1194.95 907.926L1372.95 1161H1504.49H1636.14L1632.48 1155.84C1630.44 1153.04 1519.23 1002.61 1385.32 821.631C1251.52 640.541 1141.92 491.838 1141.81 491.192C1141.71 490.224 1237.32 384.669 1531.81 61.009L1586.45 1.07602H1454.91L1323.47 1.18362L1125.03 221.117L926.594 441.159L926.271 221.117L926.056 1.07602H818.5H710.944V220.579C710.944 346.04 710.514 440.083 709.976 440.083C709.438 440.083 619.844 341.306 510.89 220.579L312.772 1.07602H181.447H50.2286L52.3797 3.44321Z" fill="#0D66BD"/>
</g>
<defs>
<clipPath id="clip0_2028_466">
<rect width="1637" height="1161" fill="white"/>
</clipPath>
</defs>
</svg>
